<svg width="55" height="55" viewBox="0 0 55 55" fill="none" xmlns="http://www.w3.org/2000/svg">
<path d="M27.5 55C42.6878 55 55 42.6878 55 27.5C55 12.3122 42.6878 0 27.5 0C12.3122 0 0 12.3122 0 27.5C0 42.6878 12.3122 55 27.5 55Z" fill="black"/>
<path fill-rule="evenodd" clip-rule="evenodd" d="M28.0156 40.0469C29.2187 40.0469 30.4219 39.7031 31.625 39.5312C33 40.0469 34.5469 40.0469 36.0938 39.875H36.2656C36.7813 39.875 37.4687 40.2187 38.5 40.9062V39.875C38.5 39.5312 38.6719 39.1875 39.0156 39.0156C39.5313 38.8437 39.875 38.5 40.2187 38.1562C41.7656 36.9531 42.625 35.2344 42.625 33.5156C42.625 33 42.4531 32.3125 42.2813 31.7969C42.7969 30.9375 43.1406 30.0781 43.3125 29.2187C44.1719 30.5937 44.6875 31.9687 44.6875 33.5156C44.6875 35.9219 43.4844 38.1562 41.5938 39.875C41.25 40.2187 40.9063 40.3906 40.5625 40.5625V43.1406C40.5625 44 39.5313 44.5156 38.8438 44C38.1563 43.4844 37.4687 42.9687 36.7812 42.625C36.6094 42.4531 36.4375 42.4531 36.0938 42.2812C35.5781 42.4531 34.8906 42.4531 34.375 42.4531C31.9688 42.1094 29.7344 41.25 28.0156 40.0469ZM15.125 35.0625C12.0313 32.4844 10.3125 28.875 10.3125 25.0937C10.3125 17.3594 17.7031 11.1719 26.6406 11.1719C35.5781 11.1719 42.9688 17.3594 42.9688 25.0937C42.9688 32.8281 35.5781 39.0156 26.6406 39.0156C25.6094 39.0156 24.5781 39.0156 23.7188 38.8437C23.375 39.0156 21.6562 39.875 19.25 41.7656C18.3906 42.4531 17.1875 41.7656 17.1875 40.7344V36.4375C16.3281 35.9219 15.6406 35.5781 15.125 35.0625ZM23.7188 36.2656H23.8906C24.75 36.4375 25.6094 36.4375 26.6406 36.4375C34.2031 36.4375 40.2187 31.2812 40.2187 25.0937C40.2187 18.9063 34.2031 13.75 26.6406 13.75C19.0781 13.75 13.0625 18.9063 13.0625 25.0937C13.0625 28.0156 14.4375 30.9375 17.0156 33C17.7031 33.5156 18.3906 34.0312 19.0781 34.375C19.4219 34.5469 19.7656 35.0625 19.7656 35.5781V37.9844C21.4844 36.7812 22.8594 36.2656 23.7188 36.2656ZM19.5937 27.8438C18.3906 27.8438 17.5312 26.8125 17.5312 25.7812C17.5312 24.5781 18.5625 23.7187 19.5937 23.7187C20.7969 23.7187 21.6563 24.5781 21.6563 25.7812C21.6563 26.9844 20.7969 27.8438 19.5937 27.8438ZM26.6406 27.8438C25.4375 27.8438 24.5781 26.8125 24.5781 25.7812C24.5781 24.5781 25.6094 23.7187 26.6406 23.7187C27.6719 23.7187 28.7031 24.5781 28.7031 25.7812C28.7031 26.9844 27.6719 27.8438 26.6406 27.8438ZM33.5156 27.8438C32.3125 27.8438 31.4531 26.8125 31.4531 25.7812C31.4531 24.5781 32.4844 23.7187 33.5156 23.7187C34.5469 23.7187 35.5781 24.5781 35.5781 25.7812C35.5781 26.9844 34.7187 27.8438 33.5156 27.8438Z" fill="#00FF38"/>
</svg>
